<svg xmlns="http://www.w3.org/2000/svg" version="1.1" xmlns:xlink="http://www.w3.org/1999/xlink" xmlns:svgjs="http://svgjs.dev/svgjs" width="2000" height="1250" viewBox="0 0 2000 1250"><g transform="matrix(1,0,0,1,-1.1364693394502865,0.5060728744939524)"><svg viewBox="0 0 395 247" data-background-color="#ffffff" preserveAspectRatio="xMidYMid meet" height="1250" width="2000" xmlns="http://www.w3.org/2000/svg" xmlns:xlink="http://www.w3.org/1999/xlink"><g id="tight-bounds" transform="matrix(1,0,0,1,0.22445269454144068,-0.09999999999999432)"><svg viewBox="0 0 394.5510946109171 247.2" height="247.2" width="394.5510946109171"><g><svg viewBox="0 0 394.5510946109171 247.2" height="247.2" width="394.5510946109171"><g><svg viewBox="0 0 395.52 247.8070529658965" height="247.2" width="394.5510946109171"><g transform="matrix(1,0,0,1,0,183.57212454053862)"><svg viewBox="0 0 395.52 64.23492842535786" height="64.23492842535786" width="395.52"><g id="textblocktransform"><svg viewBox="0 0 395.52 64.23492842535786" height="64.23492842535786" width="395.52" id="textblock"><g><svg viewBox="0 0 395.52 64.23492842535786" height="64.23492842535786" width="395.52"><g transform="matrix(1,0,0,1,0,0)"><svg width="395.52" viewBox="0.6 -36.5 293.38 47.65" height="64.23492842535786" data-palette-color="#374151"><path d="M30.45-35.5L30.45-28.3 19.65-28.3 19.65 0 11.45 0 11.45-28.3 0.6-28.3 0.6-35.5 30.45-35.5ZM28.3-7.85L28.3-7.85Q28.3-10.45 29.75-12.4 31.2-14.35 33.75-15.48 36.3-16.6 39.6-16.6L39.6-16.6Q41.2-16.6 42.75-16.32 44.3-16.05 45.45-15.55L45.45-15.55 45.45-16.7Q45.45-18.85 44.15-20 42.85-21.15 40.2-21.15L40.2-21.15Q38-21.15 36.07-20.4 34.15-19.65 32-18.25L32-18.25 29.6-23.35Q32.2-25.05 35.02-25.9 37.85-26.75 41-26.75L41-26.75Q46.9-26.75 50.17-23.93 53.45-21.1 53.45-15.75L53.45-15.75 53.45-8.9Q53.45-7.7 53.82-7.23 54.2-6.75 55.15-6.65L55.15-6.65 55.15 0Q54.15 0.2 53.27 0.3 52.4 0.4 51.75 0.4L51.75 0.4Q49.5 0.4 48.32-0.5 47.15-1.4 46.85-2.95L46.85-2.95 46.7-4.1Q44.95-1.85 42.52-0.68 40.1 0.5 37.45 0.5L37.45 0.5Q34.85 0.5 32.77-0.6 30.7-1.7 29.5-3.6 28.3-5.5 28.3-7.85ZM44.2-6.85L44.2-6.85Q44.75-7.3 45.1-7.85 45.45-8.4 45.45-8.9L45.45-8.9 45.45-11.25Q44.45-11.65 43.22-11.88 42-12.1 40.95-12.1L40.95-12.1Q38.75-12.1 37.3-11.13 35.85-10.15 35.85-8.55L35.85-8.55Q35.85-7.65 36.35-6.9 36.85-6.15 37.72-5.7 38.6-5.25 39.8-5.25L39.8-5.25Q41-5.25 42.2-5.7 43.4-6.15 44.2-6.85ZM69.3 0.5L69.3 0.5Q65.95 0.5 62.75-0.6 59.55-1.7 57.35-3.85L57.35-3.85 60.1-8.9Q62.5-7.15 64.77-6.25 67.05-5.35 69.05-5.35L69.05-5.35Q70.59-5.35 71.45-5.85 72.3-6.35 72.3-7.4L72.3-7.4Q72.3-8.15 71.8-8.58 71.3-9 70.27-9.35 69.25-9.7 67.75-10.1L67.75-10.1Q64.75-11.1 62.75-12.05 60.75-13 59.75-14.38 58.75-15.75 58.75-17.95L58.75-17.95Q58.75-20.6 60.07-22.58 61.4-24.55 63.85-25.65 66.3-26.75 69.7-26.75L69.7-26.75Q72.4-26.75 74.97-25.9 77.55-25.05 79.8-23.05L79.8-23.05 76.7-18.05Q74.45-19.6 72.7-20.3 70.95-21 69.3-21L69.3-21Q68.45-21 67.75-20.8 67.05-20.6 66.62-20.13 66.2-19.65 66.2-18.9L66.2-18.9Q66.2-18.15 66.62-17.7 67.05-17.25 67.97-16.93 68.9-16.6 70.3-16.15L70.3-16.15Q73.55-15.2 75.7-14.23 77.84-13.25 78.92-11.83 80-10.4 80-8.05L80-8.05Q80-4.05 77.12-1.78 74.25 0.5 69.3 0.5ZM110.24 0L101.74 0 94.89-10.5 92.09-7.65 92.09 0 84.09 0 84.09-36.5 92.09-36.5 92.09-15.4 100.99-26.25 109.44-26.25 99.99-14.95 110.24 0ZM149.39 0L141.19 0 141.19-21.15 133.54-5.75 129.04-5.75 121.39-21.15 121.39 0 113.19 0 113.19-35.5 122.09-35.5 131.29-16.95 140.54-35.5 149.39-35.5 149.39 0ZM153.54-7.85L153.54-7.85Q153.54-10.45 154.99-12.4 156.44-14.35 158.99-15.48 161.54-16.6 164.84-16.6L164.84-16.6Q166.44-16.6 167.99-16.32 169.54-16.05 170.69-15.55L170.69-15.55 170.69-16.7Q170.69-18.85 169.39-20 168.09-21.15 165.44-21.15L165.44-21.15Q163.24-21.15 161.31-20.4 159.39-19.65 157.24-18.25L157.24-18.25 154.84-23.35Q157.44-25.05 160.26-25.9 163.09-26.75 166.24-26.75L166.24-26.75Q172.14-26.75 175.41-23.93 178.69-21.1 178.69-15.75L178.69-15.75 178.69-8.9Q178.69-7.7 179.06-7.23 179.44-6.75 180.39-6.65L180.39-6.65 180.39 0Q179.39 0.2 178.51 0.3 177.64 0.4 176.99 0.4L176.99 0.4Q174.74 0.4 173.56-0.5 172.39-1.4 172.09-2.95L172.09-2.95 171.94-4.1Q170.19-1.85 167.76-0.68 165.34 0.5 162.69 0.5L162.69 0.5Q160.09 0.5 158.01-0.6 155.94-1.7 154.74-3.6 153.54-5.5 153.54-7.85ZM169.44-6.85L169.44-6.85Q169.99-7.3 170.34-7.85 170.69-8.4 170.69-8.9L170.69-8.9 170.69-11.25Q169.69-11.65 168.46-11.88 167.24-12.1 166.19-12.1L166.19-12.1Q163.99-12.1 162.54-11.13 161.09-10.15 161.09-8.55L161.09-8.55Q161.09-7.65 161.59-6.9 162.09-6.15 162.96-5.7 163.84-5.25 165.04-5.25L165.04-5.25Q166.24-5.25 167.44-5.7 168.64-6.15 169.44-6.85ZM194.69 0.1L194.69 0.1Q192.09 0.1 189.94-0.93 187.79-1.95 186.26-3.78 184.74-5.6 183.89-8 183.04-10.4 183.04-13.15L183.04-13.15Q183.04-16.05 183.94-18.5 184.84-20.95 186.46-22.83 188.09-24.7 190.31-25.73 192.54-26.75 195.24-26.75L195.24-26.75Q198.19-26.75 200.44-25.48 202.69-24.2 204.04-21.95L204.04-21.95 204.04-26.25 210.99-26.25 210.99-1.8Q210.99 2.2 209.06 5.1 207.14 8 203.71 9.58 200.29 11.15 195.79 11.15L195.79 11.15Q191.59 11.15 188.56 9.78 185.54 8.4 183.29 5.9L183.29 5.9 187.59 1.55Q189.04 3.2 191.19 4.17 193.34 5.15 195.79 5.15L195.79 5.15Q197.74 5.15 199.39 4.45 201.04 3.75 202.01 2.2 202.99 0.65 202.99-1.8L202.99-1.8 202.99-4.35Q201.79-2.2 199.51-1.05 197.24 0.1 194.69 0.1ZM197.44-6.25L197.44-6.25Q198.39-6.25 199.21-6.53 200.04-6.8 200.74-7.28 201.44-7.75 202.04-8.43 202.64-9.1 202.99-9.9L202.99-9.9 202.99-15.4Q202.49-16.8 201.54-17.82 200.59-18.85 199.44-19.4 198.29-19.95 197.04-19.95L197.04-19.95Q195.79-19.95 194.69-19.4 193.59-18.85 192.81-17.82 192.04-16.8 191.61-15.55 191.19-14.3 191.19-12.95L191.19-12.95Q191.19-11.5 191.66-10.3 192.14-9.1 192.99-8.18 193.84-7.25 194.99-6.75 196.14-6.25 197.44-6.25ZM241.78-16.8L241.78 0 233.78 0 233.78-14.75Q233.78-17.35 232.81-18.53 231.83-19.7 230.23-19.7L230.23-19.7Q229.13-19.7 227.98-19.1 226.83-18.5 225.91-17.45 224.98-16.4 224.48-15.05L224.48-15.05 224.48 0 216.48 0 216.48-26.25 223.68-26.25 223.68-21.85Q224.68-23.4 226.18-24.5 227.68-25.6 229.63-26.18 231.58-26.75 233.88-26.75L233.88-26.75Q236.43-26.75 238.01-25.83 239.58-24.9 240.41-23.4 241.23-21.9 241.51-20.18 241.78-18.45 241.78-16.8L241.78-16.8ZM259.63 0.5L259.63 0.5Q256.28 0.5 253.68-0.58 251.08-1.65 249.26-3.5 247.43-5.35 246.48-7.78 245.53-10.2 245.53-12.85L245.53-12.85Q245.53-16.65 247.21-19.78 248.88-22.9 252.03-24.83 255.18-26.75 259.63-26.75L259.63-26.75Q264.08-26.75 267.21-24.85 270.33-22.95 271.98-19.88 273.63-16.8 273.63-13.2L273.63-13.2Q273.63-12.5 273.56-11.83 273.48-11.15 273.43-10.65L273.43-10.65 254.03-10.65Q254.18-8.9 255.01-7.7 255.83-6.5 257.13-5.88 258.43-5.25 259.88-5.25L259.88-5.25Q261.68-5.25 263.26-6.1 264.83-6.95 265.43-8.4L265.43-8.4 272.23-6.5Q271.23-4.45 269.41-2.88 267.58-1.3 265.11-0.4 262.63 0.5 259.63 0.5ZM253.83-15.55L253.83-15.55 265.23-15.55Q265.03-17.2 264.28-18.43 263.53-19.65 262.28-20.33 261.03-21 259.53-21L259.53-21Q257.98-21 256.76-20.33 255.53-19.65 254.78-18.43 254.03-17.2 253.83-15.55ZM292.43-7.75L293.98-1.4Q292.88-0.95 291.55-0.5 290.23-0.05 288.78 0.23 287.33 0.5 285.93 0.5L285.93 0.5Q283.93 0.5 282.25-0.18 280.58-0.85 279.6-2.4 278.63-3.95 278.63-6.5L278.63-6.5 278.63-20.2 275.28-20.2 275.28-26.25 278.63-26.25 278.63-34.6 286.63-34.6 286.63-26.25 291.98-26.25 291.98-20.2 286.63-20.2 286.63-9.25Q286.63-7.95 287.28-7.38 287.93-6.8 288.93-6.8L288.93-6.8Q289.78-6.8 290.75-7.1 291.73-7.4 292.43-7.75L292.43-7.75Z" opacity="1" transform="matrix(1,0,0,1,0,0)" fill="#ffffff" class="wordmark-text-0" data-fill-palette-color="primary" id="text-0"></path></svg></g></svg></g></svg></g></svg></g><g transform="matrix(1,0,0,1,121.13826269267547,0)"><svg viewBox="0 0 153.24347461464905 153.24347461464905" height="153.24347461464905" width="153.24347461464905"><g><svg></svg></g><g id="icon-0"><svg viewBox="0 0 153.24347461464905 153.24347461464905" height="153.24347461464905" width="153.24347461464905"><g><path d="M0 76.622c0-42.317 34.305-76.622 76.622-76.622 42.317 0 76.622 34.305 76.621 76.622 0 42.317-34.305 76.622-76.621 76.621-42.317 0-76.622-34.305-76.622-76.621zM76.622 147.451c39.118 0 70.829-31.711 70.829-70.829 0-39.118-31.711-70.829-70.829-70.829-39.118 0-70.829 31.711-70.829 70.829 0 39.118 31.711 70.829 70.829 70.829z" data-fill-palette-color="accent" fill="#ffffff" stroke="transparent"></path></g><g transform="matrix(1,0,0,1,35.17958887647838,35.180049339678014)"><svg viewBox="0 0 82.88429686169229 82.88337593529302" height="82.88337593529302" width="82.88429686169229"><g><svg xmlns="http://www.w3.org/2000/svg" xmlns:xlink="http://www.w3.org/1999/xlink" version="1.1" x="0" y="0" viewBox="5 5 90.001 90" enable-background="new 0 0 100 100" xml:space="preserve" height="82.88337593529302" width="82.88429686169229" class="icon-cg-0" data-fill-palette-color="accent" id="cg-0"><g fill="#de483a" data-fill-palette-color="accent"><rect x="77.812" y="9.047" fill="none" width="13.141" height="16.188"></rect><rect x="77.812" y="74.764" fill="none" width="13.141" height="16.188"></rect><path fill="none" d="M50 74.764c-13.655 0-24.765-11.11-24.765-24.765S36.344 25.236 50 25.236h23.765V9.047H50C27.418 9.047 9.047 27.418 9.047 50c0 22.581 18.371 40.952 40.952 40.952h23.765V74.764H50z"></path><path d="M95 92.976V72.741c0-1.118-0.906-2.024-2.024-2.024H50c-11.424 0-20.718-9.294-20.718-20.718 0-11.423 9.294-20.717 20.718-20.717h42.977c1.118 0 2.024-0.906 2.024-2.024V7.024C95 5.906 94.094 5 92.976 5H50C25.187 5 5 25.187 5 50c0 24.812 20.187 45 45 45h42.977C94.094 95 95 94.094 95 92.976zM90.953 74.764v16.188H77.812V74.764H90.953zM90.953 9.047v16.188H77.812V9.047H90.953zM50 90.953C27.418 90.953 9.047 72.582 9.047 50 9.047 27.418 27.418 9.047 50 9.047h23.765v16.188H50c-13.655 0-24.765 11.109-24.765 24.764S36.344 74.764 50 74.764h23.765v16.188H50z" fill="#ffffff" data-fill-palette-color="accent"></path></g></svg></g></svg></g></svg></g></svg></g><g></g></svg></g></svg></g><defs></defs></svg><rect width="394.5510946109171" height="247.2" fill="none" stroke="none" visibility="hidden"></rect></g></svg></g></svg>